<?xml version="1.0" encoding="UTF-8"?>
<svg width="24px" height="24px" viewBox="0 0 24 24" version="1.1" xmlns="http://www.w3.org/2000/svg" xmlns:xlink="http://www.w3.org/1999/xlink">
    <!-- Generator: Sketch 46.2 (44496) - http://www.bohemiancoding.com/sketch -->
    <title>icons/very-positive</title>
    <desc>Created with Sketch.</desc>
    <defs></defs>
    <g id="Icons" stroke="none" stroke-width="1" fill="none" fill-rule="evenodd">
        <g id="icons/very-positive">
            <g id="very-positive" transform="translate(2.000000, 2.000000)">
                <circle id="Oval" stroke="#000000" stroke-width="2" stroke-linecap="round" stroke-linejoin="round" cx="10" cy="10" r="10"></circle>
                <path d="M6.99829102,13 C7.6632487,14.3365885 8.66345215,15.0048828 9.99890137,15.0048828 C11.3343506,15.0048828 12.334554,14.3365885 12.9995117,13 L6.99829102,13 Z" id="Shape" stroke="#000000" stroke-width="2" stroke-linecap="round" stroke-linejoin="round"></path>
                <path d="M7.5,9 C8.3284271,9 9,8.10456947 9,7 C9,5.89543053 8.3284271,5 7.5,5 C6.6715729,5 6,5.89543053 6,7 C6,8.10456947 6.6715729,9 7.5,9 L7.5,9 Z" id="Path" fill="#000000"></path>
                <path d="M12.5,9 C13.3284271,9 14,8.10456947 14,7 C14,5.89543053 13.3284271,5 12.5,5 C11.6715729,5 11,5.89543053 11,7 C11,8.10456947 11.6715729,9 12.5,9 L12.5,9 Z" id="Path" fill="#000000"></path>
            </g>
        </g>
    </g>
</svg>