<?xml version="1.0" encoding="UTF-8"?>
<svg width="24px" height="24px" viewBox="0 0 24 24" version="1.1" xmlns="http://www.w3.org/2000/svg" xmlns:xlink="http://www.w3.org/1999/xlink">
    <!-- Generator: Sketch 46.2 (44496) - http://www.bohemiancoding.com/sketch -->
    <title>icons/zapier</title>
    <desc>Created with Sketch.</desc>
    <defs></defs>
    <g id="Icons" stroke="none" stroke-width="1" fill="none" fill-rule="evenodd">
        <g id="icons/zapier" fill="#000000">
            <path d="M14.75,12.004785 C14.749505,12.822195 14.600015,13.60468 14.327545,14.327105 C13.60534,14.59952 12.82247,14.749395 12.00473,14.75 L11.99527,14.75 C11.177915,14.749395 10.395265,14.59996 9.67306,14.3276 C9.40059,13.605285 9.25055,12.822415 9.25,12.004785 L9.25,11.99527 C9.25055,11.17786 9.40026,10.39532 9.67229,9.673005 C10.39488,9.40048 11.177585,9.250495 11.99527,9.25 L12.00473,9.25 C12.82247,9.250495 13.60534,9.40048 14.327545,9.673005 C14.600015,10.39532 14.749505,11.17786 14.75,11.99527 L14.75,12.004785 Z M22.8471,10.166685 L16.42607,10.166685 L20.96632,5.62638 C20.60948,5.125165 20.21161,4.65519 19.77766,4.221295 L19.77744,4.221075 C19.343875,3.78762 18.874285,3.39019 18.37362,3.03368 L13.833315,7.57393 L13.833315,1.152955 C13.238875,1.053185 12.628595,1.00033 12.00583,1 L11.994115,1 C11.371405,1.00033 10.761125,1.053185 10.166685,1.152955 L10.166685,7.573985 L5.62638,3.03368 C5.12544,3.390355 4.655685,3.788005 4.22201,4.22168 L4.220415,4.22322 C3.787235,4.656565 3.39008,5.125935 3.033735,5.62638 L7.57404,10.166685 L1.1529,10.166685 C1.1529,10.166685 1.00022,11.37267 1,11.995985 L1,12.00385 C1.00022,12.627275 1.05313,13.238325 1.152955,13.833315 L7.57393,13.833315 L3.033735,18.373565 C3.74725,19.3755 4.624445,20.252805 5.626435,20.96632 L10.166685,16.426125 L10.166685,22.847045 C10.760465,22.94665 11.37014,22.99956 11.99219,23 L12.00792,23 C12.629915,22.99956 13.239535,22.94665 13.833315,22.8471 L13.833315,16.426015 L18.373675,20.966265 C18.87445,20.6097 19.34404,20.212215 19.77766,19.778705 L19.77876,19.77766 C20.212215,19.34404 20.6097,18.874395 20.966265,18.373675 L16.426015,13.833315 L22.847045,13.833315 C22.94665,13.239535 22.99956,12.62986 23,12.00781 L23,11.99208 C22.99956,11.370085 22.94665,10.760465 22.8471,10.166685 L22.8471,10.166685 Z" id="Fill-1"></path>
        </g>
    </g>
</svg>