<?xml version="1.0" encoding="UTF-8"?>
<svg width="24px" height="24px" viewBox="0 0 24 24" version="1.1" xmlns="http://www.w3.org/2000/svg" xmlns:xlink="http://www.w3.org/1999/xlink">
    <!-- Generator: Sketch 49 (51002) - http://www.bohemiancoding.com/sketch -->
    <title>dovetail</title>
    <desc>Created with Sketch.</desc>
    <defs></defs>
    <g id="dovetail" stroke="none" stroke-width="1" fill="none" fill-rule="evenodd">
        <g transform="translate(0.000000, 2.000000)" fill="#726D82" id="Combined-Shape">
            <path d="M11.2499958,20.2506133 C14.1343276,20.2506133 16.8482101,18.4949315 18.3749958,15.7506133 C19.9017816,13.0062951 18.7499958,9.37561333 20.2499958,7.12561333 C21.7499958,4.87561333 23.9999958,4.50061333 23.9999958,4.12561333 C23.9999958,3.75061333 22.3124958,4.12561333 21.7499958,3.56311333 C21.1874958,3.00061333 20.6249958,2.25061333 19.4999958,2.25061333 C18.3749958,2.25061333 17.5111566,3.40970423 17.1574688,4.78468902 C15.2095982,11.6202939 9.57717171,16.7988099 2.62499584,18.0006133 C6.45210803,19.5006133 9.32710803,20.2506133 11.2499958,20.2506133 Z"></path>
            <path d="M0,3.03101998 C3.37499584,7.12561333 8.24999584,8.64081665 13.5576806,7.63751861 C12.0841763,9.99143134 9.74999584,13.1256133 6.77884028,14.2506133 C0.749995842,12.5631133 -1.1806451e-14,4.69318264 0,3.03101998 Z M14.2499958,5.62561333 C7.12499584,6.75061333 2.99999584,4.12561333 1.12499584,1.50061333 C1.12499584,1.50061333 1.0872999,-0.0350986229 1.12499584,0.00061332555 C4.68749584,3.37561333 8.05382467,5.25061333 14.9999958,4.12561333 C14.9999958,4.12561333 14.2499958,5.62561333 14.2499958,5.62561333 Z"></path>
        </g>
    </g>
</svg>