<?xml version="1.0" encoding="UTF-8"?>
<svg width="24px" height="24px" viewBox="0 0 24 24" version="1.1" xmlns="http://www.w3.org/2000/svg" xmlns:xlink="http://www.w3.org/1999/xlink">
    <!-- Generator: Sketch 46.2 (44496) - http://www.bohemiancoding.com/sketch -->
    <title>icons/keyboard</title>
    <desc>Created with Sketch.</desc>
    <defs></defs>
    <g id="Icons" stroke="none" stroke-width="1" fill="none" fill-rule="evenodd" stroke-linecap="round" stroke-linejoin="round">
        <g id="icons/keyboard" stroke="#726D82" stroke-width="2">
            <g id="keyboard" transform="translate(2.000000, 5.000000)">
                <path d="M2,0 L18,0 C19.1,0 20,0.7875 20,1.75 L20,12.25 C20,13.2125 19.1,14 18,14 L2,14 C0.9,14 0,13.2125 0,12.25 L0,1.75 C0,0.7875 0.9,0 2,0 Z" id="Shape"></path>
                <polyline id="Shape" points="5 7 4.5 7 4 7"></polyline>
                <polyline id="Shape" points="9 7 8.5 7 8 7"></polyline>
                <polyline id="Shape" points="16 7 14 7 12 7"></polyline>
                <polyline id="Shape" points="12 4 11.5 4 11 4"></polyline>
                <polyline id="Shape" points="8 4 6 4 4 4"></polyline>
                <polyline id="Shape" points="16 4 15.5 4 15 4"></polyline>
                <polyline id="Shape" points="16 10 10 10 4 10"></polyline>
            </g>
        </g>
    </g>
</svg>