<?xml version="1.0" encoding="UTF-8"?>
<svg width="24px" height="24px" viewBox="0 0 24 24" version="1.1" xmlns="http://www.w3.org/2000/svg" xmlns:xlink="http://www.w3.org/1999/xlink">
    <!-- Generator: Sketch 48.2 (47327) - http://www.bohemiancoding.com/sketch -->
    <title>megaphone</title>
    <desc>Created with Sketch.</desc>
    <defs></defs>
    <g id="Icons" stroke="none" stroke-width="1" fill="none" fill-rule="evenodd" stroke-linecap="round" stroke-linejoin="round">
        <g id="megaphone" stroke="#000000" stroke-width="2">
            <g transform="translate(2.000000, 3.000000)" id="Combined-Shape">
                <path d="M14,0 C14.6666667,2 15,4.66666667 15,8 C15,11.3333333 14.6666667,13.6666667 14,15 L8,13 L8,16 C8,17.1045695 7.1045695,18 6,18 C4.8954305,18 4,17.1045695 4,16 L4,12 L1,11 C0.333333333,10.3333333 7.25716622e-17,9.33333333 0,8 C0,6.66666667 0.333333333,5.66666667 1,5 L14,0 Z M19,6 C19.5,6.5 20,7 20,8 C20,9 19.5,9.5 19,10 L19,6 Z"></path>
            </g>
        </g>
    </g>
</svg>