<?xml version="1.0" encoding="UTF-8"?>
<svg width="24px" height="24px" viewBox="0 0 24 24" version="1.1" xmlns="http://www.w3.org/2000/svg" xmlns:xlink="http://www.w3.org/1999/xlink">
    <!-- Generator: Sketch 46.2 (44496) - http://www.bohemiancoding.com/sketch -->
    <title>icons/neutral</title>
    <desc>Created with Sketch.</desc>
    <defs></defs>
    <g id="Icons" stroke="none" stroke-width="1" fill="none" fill-rule="evenodd">
        <g id="icons/neutral">
            <g id="neutral" transform="translate(2.000000, 2.000000)">
                <circle id="Oval" stroke="#726D82" stroke-width="2" stroke-linecap="round" stroke-linejoin="round" cx="10" cy="10" r="10"></circle>
                <path d="M6.99829102,14 C7.6632487,14 8.66345215,14 9.99890137,14 C11.3343506,14 12.334554,14 12.9995117,14" id="Shape" stroke="#726D82" stroke-width="2" stroke-linecap="round" stroke-linejoin="round"></path>
                <path d="M7.5,9 C8.3284271,9 9,8.3284271 9,7.5 C9,6.6715729 8.3284271,6 7.5,6 C6.6715729,6 6,6.6715729 6,7.5 C6,8.3284271 6.6715729,9 7.5,9 L7.5,9 Z" id="Path" fill="#726D82"></path>
                <path d="M12.5,9 C13.3284271,9 14,8.3284271 14,7.5 C14,6.6715729 13.3284271,6 12.5,6 C11.6715729,6 11,6.6715729 11,7.5 C11,8.3284271 11.6715729,9 12.5,9 L12.5,9 Z" id="Path" fill="#726D82"></path>
            </g>
        </g>
    </g>
</svg>